Coordinates
version=1
nRows=10
nColumns=22
inDegrees=yes

Units are S.I. units (second, meters, Newtons, ...)
If the header above contains a line with 'inDegrees', this indicates whether rotational values are in degrees (yes) or radians (no).

endheader
time	pelvis_tilt	pelvis_list	pelvis_rotation	pelvis_tx	pelvis_ty	pelvis_tz	hip_flexion_r	hip_adduction_r	hip_rotation_r	knee_angle_r	ankle_angle_r	subtalar_angle_r	hip_flexion_l	hip_adduction_l	hip_rotation_l	knee_angle_l	ankle_angle_l	subtalar_angle_l	lumbar_extension	lumbar_bending	lumbar_rotation
      3.25000000	     -0.15359061	     11.09760315	    151.10256630	      0.86153374	      0.92904691	     -0.48407500	     -2.98752894	      6.29099833	     -9.75290840	    -15.71302167	     11.58118862	      6.28249850	     15.42883752	     -4.81659433	      9.58651628	    -64.82151603	     12.45857307	     -9.97461062	    -12.31558250	      7.01895366	     -7.29511480
      3.26000000	     -0.56059094	     10.85564818	    151.84798097	      0.85465593	      0.92957873	     -0.48913316	     -4.13592045	      6.14758400	    -10.08030661	    -15.10642388	     11.83199482	      6.03778887	     16.92224228	     -4.55734342	      8.46091642	    -64.10800985	     13.62595942	    -11.84033692	    -12.70768925	      6.62326080	     -6.93121184
      3.27000000	     -0.98959638	     10.64586897	    152.57368606	      0.84769676	      0.92997725	     -0.49415806	     -5.34173725	      6.02883151	    -10.45728558	    -14.48467491	     12.15748077	      5.85638782	     18.24727143	     -4.33145976	      7.25942940	    -63.07283000	     14.63197590	    -13.38204653	    -13.14223558	      6.25294835	     -6.54310304
      3.28000000	     -1.37551461	     10.43843549	    153.27146422	      0.84065844	      0.93012208	     -0.49918573	     -6.52241012	      5.94679799	    -10.82911832	    -13.85566366	     12.47844332	      5.71147616	     19.48136664	     -4.14546387	      5.98242504	    -61.73119621	     15.52530139	    -14.68747398	    -13.52436125	      5.91259413	     -6.20885373
      3.29000000	     -1.76761235	     10.25996942	    153.92801485	      0.83353790	      0.93008566	     -0.50422091	     -7.73813943	      5.89503688	    -11.21750054	    -13.21831289	     12.86584191	      5.62178826	     20.55045961	     -3.99616286	      4.63485329	    -60.08735692	     16.24204115	    -15.54875012	    -13.93046270	      5.59747695	     -5.82106389
      3.30000000	     -2.11264857	     10.09613229	    154.54588146	      0.82632980	      0.92976714	     -0.50926682	     -8.92205969	      5.88814594	    -11.58946326	    -12.58613255	     13.24625336	      5.55435851	     21.52194904	     -3.89143102	      3.22735663	    -58.17241697	     16.85036636	    -16.15828623	    -14.29016800	      5.32526294	     -5.46429255
      3.31000000	     -2.42704016	      9.96007257	    155.10830789	      0.81903562	      0.92919623	     -0.51434428	    -10.07852316	      5.92089282	    -11.95782338	    -11.99290987	     13.65518190	      5.51215095	     22.37028395	     -3.84409776	      1.73960793	    -56.00633999	     17.30090626	    -16.45716768	    -14.62952299	      5.09671681	     -5.09965065
      3.32000000	     -2.70739135	      9.84132179	    155.62862060	      0.81162227	      0.92837745	     -0.51941640	    -11.21370860	      5.98731437	    -12.30605877	    -11.40757218	     14.03977034	      5.47368800	     23.10145822	     -3.81672836	      0.22377548	    -53.60515907	     17.57324324	    -16.55158800	    -14.93604446	      4.90485398	     -4.72681904
      3.33000000	     -2.96878176	      9.74424644	    156.10406008	      0.80409770	      0.92734540	     -0.52449410	    -12.33469186	      6.08118158	    -12.63537362	    -10.84710864	     14.39668504	      5.43004893	     23.70250154	     -3.81353742	     -1.33673369	    -50.99802096	     17.62608790	    -16.43487763	    -15.22840486	      4.74440223	     -4.36593901
      3.34000000	     -3.19956986	      9.66733994	    156.53378894	      0.79644293	      0.92608695	     -0.52954786	    -13.41875712	      6.19831531	    -12.94813723	    -10.33143300	     14.73365918	      5.38250815	     24.19283877	     -3.82947914	     -2.93112455	    -48.22445858	     17.44128748	    -16.08709749	    -15.48828164	      4.62547645	     -3.99693891
